<?xml version="1.0" standalone="no"?>
<!DOCTYPE svg PUBLIC "-//W3C//DTD SVG 20010904//EN"
 "http://www.w3.org/TR/2001/REC-SVG-20010904/DTD/svg10.dtd">
<svg version="1.0" xmlns="http://www.w3.org/2000/svg"
 viewBox="0 0 2600.000000 2600.000000"
 preserveAspectRatio="xMidYMid meet">
<metadata>
Created by potrace 1.15, written by Peter Selinger 2001-2017
</metadata>
<g transform="translate(0.000000,2600.000000) scale(0.100000,-0.100000)"
fill="#000000" stroke="none">
<path d="M14870 20829 c-81 -40 -247 -203 -339 -332 -197 -275 -433 -745 -622
-1237 -320 -835 -606 -1873 -850 -3091 -38 -194 -66 -355 -62 -359 13 -12 287
-70 294 -62 14 15 285 523 433 811 812 1578 1352 2940 1461 3684 18 125 21
337 6 415 -16 78 -50 150 -84 174 -21 15 -49 22 -101 25 -65 4 -77 2 -136 -28z"/>
<path d="M9095 18300 c-1193 -37 -2223 -146 -3160 -335 -1409 -284 -2348 -720
-2425 -1126 -39 -204 188 -440 635 -659 144 -71 452 -200 476 -200 6 0 42 22
82 49 158 106 363 193 562 237 209 47 545 44 780 -7 49 -10 92 -19 96 -19 4 0
29 18 55 40 53 44 162 103 209 115 122 29 235 24 322 -15 l45 -20 41 29 c221
150 608 274 1012 322 162 20 568 17 725 -4 284 -40 527 -112 747 -222 l142
-71 63 49 c254 198 664 240 1118 115 134 -37 163 -38 370 -10 294 40 506 55
785 56 383 1 525 -22 685 -114 125 -72 200 -96 200 -64 0 53 215 968 320 1359
38 142 68 260 67 262 -5 5 -253 42 -447 67 -588 77 -1160 125 -1855 156 -314
14 -1319 20 -1650 10z"/>
<path d="M14715 17563 c-95 -213 -318 -672 -491 -1012 l-176 -346 34 -27 c18
-14 73 -58 123 -97 49 -40 132 -111 185 -160 l95 -88 165 53 c91 29 203 65
250 81 l85 30 7 174 c15 397 74 676 193 924 46 96 148 257 184 289 12 11 21
23 21 28 0 16 -291 141 -500 214 -52 18 -102 35 -111 39 -12 4 -26 -18 -64
-102z"/>
<path d="M16241 17359 c-296 -36 -506 -178 -636 -429 -183 -355 -214 -908 -90
-1587 254 -1381 1127 -3201 2310 -4814 1358 -1852 2993 -3274 4179 -3633 313
-95 599 -115 814 -56 728 200 851 1341 320 2960 -276 843 -715 1762 -1286
2692 -54 87 -101 158 -106 158 -5 0 -37 -13 -72 -30 -436 -206 -960 -114
-1305 230 -101 101 -161 182 -222 305 -87 174 -120 317 -121 520 0 297 92 540
294 773 33 39 60 73 60 77 0 4 -57 73 -127 153 -440 507 -947 1015 -1390 1395
-827 708 -1616 1158 -2222 1266 -132 24 -302 32 -400 20z"/>
<path d="M3502 11178 l3 -4873 33 -69 c43 -92 178 -227 322 -322 490 -326
1413 -616 2565 -808 1245 -207 2737 -290 4250 -235 1954 70 3685 387 4685 856
293 138 535 314 628 458 67 102 62 -166 62 3262 l0 3113 -79 158 c-396 792
-713 1660 -861 2360 -25 119 -80 429 -80 453 0 4 -81 -20 -179 -52 -1447 -472
-3753 -715 -5981 -628 -1836 71 -3487 348 -4550 764 -210 82 -526 241 -670
337 -69 45 -131 87 -138 91 -10 6 -12 -956 -10 -4865z m2078 667 c94 -16 220
-55 291 -91 l47 -23 -53 -172 c-30 -94 -55 -172 -57 -174 -2 -2 -39 14 -83 36
-121 58 -219 81 -350 82 -92 1 -120 -3 -170 -22 -111 -43 -185 -147 -185 -259
0 -79 20 -122 85 -188 62 -63 60 -62 416 -233 346 -165 492 -378 476 -695 -13
-267 -134 -454 -374 -575 -283 -142 -769 -131 -1075 25 l-56 29 52 173 c29 95
55 175 58 177 3 3 43 -13 89 -34 228 -107 471 -137 639 -80 89 31 162 103 186
184 22 79 15 168 -20 240 -49 99 -115 143 -438 293 -147 69 -240 131 -329 222
-187 188 -228 437 -114 685 147 320 517 473 965 400z m4480 -1 c161 -33 321
-142 412 -280 52 -79 53 -77 63 109 l7 137 220 0 220 0 -7 -27 c-4 -16 -11
-530 -15 -1143 -6 -937 -10 -1132 -23 -1223 -70 -476 -291 -763 -678 -881
-148 -45 -270 -58 -494 -53 -150 3 -227 10 -308 26 -181 36 -377 114 -377 149
1 19 95 351 102 358 3 2 36 -11 74 -30 245 -120 590 -160 801 -92 178 57 297
176 360 358 39 111 53 224 52 413 l0 170 -26 -35 c-15 -19 -59 -67 -99 -107
-56 -55 -94 -82 -166 -117 -119 -58 -187 -76 -320 -83 -518 -28 -905 364 -968
982 -30 284 19 583 134 820 205 424 606 636 1036 549z m2426 12 c352 -21 612
-235 698 -578 40 -157 46 -274 46 -917 0 -537 7 -761 26 -853 l6 -28 -220 0
-220 0 -6 28 c-3 15 -10 72 -17 127 -6 55 -14 103 -18 108 -4 4 -29 -18 -56
-49 -90 -105 -233 -193 -382 -236 -65 -19 -102 -23 -223 -23 -124 0 -156 3
-220 23 -211 66 -363 215 -436 427 -25 72 -28 94 -28 225 -1 168 12 230 74
355 153 310 524 485 1088 511 l145 7 -7 93 c-19 279 -154 413 -431 430 -165
11 -391 -40 -544 -121 -36 -19 -66 -34 -67 -32 -4 5 -94 303 -94 314 0 14 145
85 243 118 43 14 122 35 175 46 92 19 298 38 352 33 14 -2 66 -5 116 -8z
m2532 -1 c9 -3 12 -59 12 -235 l0 -231 -87 7 c-287 20 -494 -141 -574 -446
-22 -83 -23 -99 -26 -777 l-4 -693 -245 0 -244 0 0 1028 c0 566 -3 1090 -7
1165 l-6 137 210 0 210 0 7 -77 c3 -42 6 -108 6 -147 0 -92 11 -206 20 -206 3
0 17 25 29 55 98 237 324 412 551 428 39 2 129 -2 148 -8z m-8046 -807 c4
-763 4 -774 26 -853 61 -221 158 -323 335 -356 136 -25 303 30 409 134 63 62
97 117 130 207 l23 65 3 783 3 782 244 0 243 0 6 -1117 c3 -615 8 -1139 12
-1165 l6 -48 -216 0 c-199 0 -216 1 -217 18 -6 112 -25 313 -30 315 -4 1 -31
-29 -61 -68 -115 -150 -289 -258 -474 -297 -135 -27 -303 -21 -419 16 -287 91
-460 346 -504 739 -7 60 -11 382 -11 857 l0 760 245 0 244 0 3 -772z"/>
<path d="M9848 11464 c-304 -73 -484 -411 -465 -869 11 -265 76 -445 212 -581
79 -80 146 -117 250 -139 94 -20 137 -19 231 5 184 47 316 185 371 390 16 56
18 111 18 400 0 251 -3 349 -14 390 -74 296 -334 470 -603 404z"/>
<path d="M12475 10639 c-108 -14 -250 -56 -326 -95 -83 -44 -161 -119 -193
-188 -29 -62 -49 -183 -41 -245 29 -212 148 -321 349 -321 186 0 353 97 432
252 46 91 54 146 54 385 l0 223 -102 -1 c-57 -1 -134 -6 -173 -10z"/>
<path d="M21068 14375 c-493 -93 -744 -617 -503 -1052 52 -94 188 -227 280
-275 119 -62 203 -82 335 -83 82 0 132 5 175 18 273 81 440 248 522 522 28 93
23 276 -9 377 -40 121 -91 203 -187 298 -68 68 -104 94 -171 127 -149 73 -296
96 -442 68z"/>
</g>
</svg>
